<svg width="100" height="100" viewBox="0 0 100 100" fill="none" xmlns="http://www.w3.org/2000/svg">
<path d="M30.7293 69.9208L35.9377 63.4125L19.171 50L35.9377 36.5875L30.7293 30.0792L9.896 46.7458C9.40785 47.1362 9.01378 47.6313 8.74297 48.1947C8.47216 48.758 8.33154 49.375 8.33154 50C8.33154 50.625 8.47216 51.242 8.74297 51.8053C9.01378 52.3687 9.40785 52.8638 9.896 53.2542L30.7293 69.9208ZM69.271 30.0792L64.0627 36.5875L80.8293 50L64.0627 63.4125L69.271 69.9208L90.1043 53.2542C90.5925 52.8638 90.9866 52.3687 91.2574 51.8053C91.5282 51.242 91.6688 50.625 91.6688 50C91.6688 49.375 91.5282 48.758 91.2574 48.1947C90.9866 47.6313 90.5925 47.1362 90.1043 46.7458L69.271 30.0792ZM62.4002 13.4L45.7335 88.4L37.596 86.5917L54.2627 11.5917L62.4002 13.4Z" fill="#38F54E"/>
</svg>
