<svg width="90" height="72" viewBox="0 0 90 72" fill="none" xmlns="http://www.w3.org/2000/svg">
<g clip-path="url(#clip0_13_1679)">
<path d="M0 31.4999V69.7499C0 70.993 1.00688 71.9999 2.25 71.9999H13.5V26.9999H4.5C2.01516 26.9999 0 29.015 0 31.4999ZM50.625 24.7499H47.25V19.1249C47.25 18.5033 46.7466 17.9999 46.125 17.9999H43.875C43.2534 17.9999 42.75 18.5033 42.75 19.1249V28.1249C42.75 28.7465 43.2534 29.2499 43.875 29.2499H50.625C51.2466 29.2499 51.75 28.7465 51.75 28.1249V25.8749C51.75 25.2533 51.2466 24.7499 50.625 24.7499ZM69.9961 15.7555L47.4961 0.755046C46.7568 0.262622 45.8883 -0.00012207 45 -0.00012207C44.1117 -0.00012207 43.2432 0.262622 42.5039 0.755046L20.0039 15.7555C19.3876 16.1664 18.8823 16.723 18.5327 17.376C18.1831 18.0291 18.0002 18.7583 18 19.499V71.9999H36V51.7499C36 50.5068 37.0069 49.4999 38.25 49.4999H51.75C52.9931 49.4999 54 50.5068 54 51.7499V71.9999H72V19.5004C72 17.9957 71.2477 16.5894 69.9961 15.7555ZM45 35.9999C38.7872 35.9999 33.75 30.9627 33.75 24.7499C33.75 18.5371 38.7872 13.4999 45 13.4999C51.2128 13.4999 56.25 18.5371 56.25 24.7499C56.25 30.9627 51.2128 35.9999 45 35.9999ZM85.5 26.9999H76.5V71.9999H87.75C88.9931 71.9999 90 70.993 90 69.7499V31.4999C90 29.015 87.9848 26.9999 85.5 26.9999Z" fill="#38F54E"/>
</g>
<defs>
<clipPath id="clip0_13_1679">
<rect width="90" height="72" fill="white"/>
</clipPath>
</defs>
</svg>
